<svg width="148" height="33" viewBox="0 0 148 33" xmlns="http://www.w3.org/2000/svg" class="icon" role="img" aria-label="Verbb"><title>Verbb</title><path d="M49.508.392c-8.65 0-15.328 6.724-17.34 12.974C28.904 23.498 35.4 32.32 45.194 32.32c6.057 0 11.377-2.498 14.52-5.642 1.332-1.33.486-2.157-.53-2.685-.558-.29-2.22-1.125-2.22-1.125-.9-.46-2.062-.523-3.046.045-1.405.807-2.765 2.148-7.704 2.148-3.972 0-6.907-2.673-7.443-6.308 0 0 16.407-.055 22.168-.055 1.93 0 2.62-1.572 2.62-4.48 0-8.3-6.138-13.825-14.052-13.825zM39.73 13.326c1.7-3.31 5.194-5.676 8.933-5.676 3.737 0 6.564 2.367 7.333 5.676H39.73zM32.706.953c1.236 0 1.86 1.055 1.295 2.265L20.623 29.532c-.68 1.34-2.08 2.228-3.506 2.228h-5.835c-1.236 0-2.23-.777-2.48-1.942L3.558 5.584H1.707c-.594 0-1.08-.358-1.233-.908L.01 2.994c-.27-.97.594-2.04 1.647-2.04h7.98c1.12 0 2.01.726 2.194 1.796l3.596 20.798L25.604 2.574c.472-.97 1.476-1.62 2.502-1.62h4.6zm107.615.03c4.638.333 7.803 4.197 7.133 8.968-.324 2.31-1.51 4.395-3.16 5.99 1.64 1.678 2.505 4.09 2.124 6.805-.71 5.056-5.387 9.09-10.44 9.09l-14.02-.04c-1.012-.003-1.716-.825-1.574-1.838l.026-.19c1.723-2.055 2.922-4.48 3.298-7.17.357-2.523-.07-4.977-1.183-7.053 1.172-1.77 1.94-3.735 2.22-5.74.3-2.137.03-4.156-.686-5.93l.14-1.01c.15-1.072 1.145-1.94 2.217-1.938l13.903.057zm-1.477 21.303c.256-1.82-.735-3.29-2.212-3.307l.003-.006h-7.025l-.932 6.627 7.025-.005c1.484-.015 2.887-1.487 3.143-3.31zm1.746-12.11c.262-1.884-.74-3.414-2.24-3.414h-7.026l-.96 6.827h7.024c1.502 0 2.936-1.53 3.2-3.414zM113.194.956c4.638.334 7.803 4.198 7.133 8.967-.324 2.31-1.51 4.395-3.16 5.992 1.64 1.676 2.504 4.09 2.124 6.803-.71 5.057-5.387 9.09-10.44 9.09l-14.02-.04c-1.012-.003-1.716-.825-1.574-1.838l3.818-27.093C97.226 1.767 98.214.9 99.284.9h.008l13.903.057zm-1.477 21.304c.256-1.82-.735-3.292-2.212-3.307l.002-.006h-7.025l-.932 6.627 7.026-.006c1.483-.015 2.886-1.486 3.142-3.308zm1.746-12.11c.263-1.885-.738-3.415-2.24-3.415H104.2l-.96 6.828h7.023c1.502 0 2.936-1.53 3.2-3.413zm-21.2-1.44c0 4.94-4.24 9.76-9.49 9.76l7 10.615c1.154 1.872.094 2.66-1.446 2.66l-4.3.01c-1.303 0-2.643-1.024-3.388-2.357l-5.424-10.504h-1.15L72.59 29.398c-.183 1.3-1.385 2.358-2.688 2.358h-3.266c-1.3 0-2.208-1.057-2.024-2.358L68.28 3.305c.18-1.3 1.385-2.358 2.686-2.358h13.66l-.005.017c4.87.087 7.645 3.852 7.645 7.745zm-8.226 1.368c.265-1.887-.737-3.415-2.24-3.415h-6.012l-.96 6.828h6.013c1.5 0 2.933-1.528 3.198-3.412z" fill-rule="nonzero" fill="#e0e4ea"></path></svg>